HIERARCHY
ROOT Hips
{
	OFFSET 0.000000 88.474243 0.000000
	CHANNELS 6 Xposition Yposition Zposition Zrotation Yrotation Xrotation 
	JOINT Hips_Spine
	{
		OFFSET 0.000000 0.000000 0.000000
		CHANNELS 3 Zrotation Yrotation Xrotation
		JOINT Spine
		{
			OFFSET 0.005100 8.711998 -0.691000
			CHANNELS 3 Zrotation Yrotation Xrotation
			JOINT Spine1
			{
				OFFSET -0.009200 8.660301 -1.275000
				CHANNELS 3 Zrotation Yrotation Xrotation
				JOINT Spine2
				{
					OFFSET 0.006300 9.852501 -1.857000
					CHANNELS 3 Zrotation Yrotation Xrotation
					JOINT Spine2_Neck
					{
						OFFSET 0.000000 0.000000 0.000000
						CHANNELS 3 Zrotation Yrotation Xrotation
						JOINT Neck
						{
							OFFSET 0.016300 11.420799 -0.263300
							CHANNELS 3 Zrotation Yrotation Xrotation
							End Site #name: Head
							{
								OFFSET -0.019200 9.262405 2.362500
							}
						}
					}
					JOINT Spine2_LeftShoulder
					{
						OFFSET 0.000000 0.000000 0.000000
						CHANNELS 3 Zrotation Yrotation Xrotation
						JOINT LeftShoulder
						{
							OFFSET 5.616900 6.732201 -0.345700
							CHANNELS 3 Zrotation Yrotation Xrotation
							JOINT LeftArm
							{
								OFFSET 10.664888 -0.183372 -2.440700
								CHANNELS 3 Zrotation Yrotation Xrotation
								JOINT LeftForeArm
								{
									OFFSET 27.459126 0.000000 0.000000
									CHANNELS 3 Zrotation Yrotation Xrotation
									End Site #name: LeftHand
									{
										OFFSET 21.306858 0.000000 0.000000
									}
								}
							}
						}
					}
					JOINT Spine2_RightShoulder
					{
						OFFSET 0.000000 0.000000 0.000000
						CHANNELS 3 Zrotation Yrotation Xrotation
						JOINT RightShoulder
						{
							OFFSET -5.580300 6.737503 -0.344400
							CHANNELS 3 Zrotation Yrotation Xrotation
							JOINT RightArm
							{
								OFFSET -10.679335 -0.188484 -2.383900
								CHANNELS 3 Zrotation Yrotation Xrotation
								JOINT RightForeArm
								{
									OFFSET -27.503529 0.000000 0.000000
									CHANNELS 3 Zrotation Yrotation Xrotation
									End Site #name: RightHand
									{
										OFFSET -21.306808 0.000000 0.000000
									}
								}
							}
						}
					}
				}
			}
		}
	}
	JOINT Hips_LeftUpLeg
	{
		OFFSET 0.000000 0.000000 0.000000
		CHANNELS 3 Zrotation Yrotation Xrotation
		JOINT LeftUpLeg
		{
			OFFSET 6.857700 -6.739601 0.312100
			CHANNELS 3 Zrotation Yrotation Xrotation
			JOINT LeftLeg
			{
				OFFSET -0.367590 -34.731552 -4.572400
				CHANNELS 3 Zrotation Yrotation Xrotation
				End Site #name: LeftFoot
				{
					OFFSET 0.367590 -34.656704 -6.067400
				}
			}
		}
	}
	JOINT Hips_RightUpLeg
	{
		OFFSET 0.000000 0.000000 0.000000
		CHANNELS 3 Zrotation Yrotation Xrotation
		JOINT RightUpLeg
		{
			OFFSET -6.876100 -6.733299 0.301000
			CHANNELS 3 Zrotation Yrotation Xrotation
			JOINT RightLeg
			{
				OFFSET 0.347353 -34.795158 -4.515900
				CHANNELS 3 Zrotation Yrotation Xrotation
				End Site #name: RightFoot
				{
					OFFSET -0.347353 -34.589367 -6.070300
				}
			}
		}
	}
}
MOTION
Frames: 11
Frame Time: 0.041667
-2.632796 -0.055398 -3.215673 -6.404908 22.441836 -0.221988 0.000000 -0.000000 0.000000 0.513129 -1.471741 0.816434 3.515546 1.611998 2.955689 0.000000 0.000000 0.000000 3.713410 0.511541 3.623490 -3.501681 -3.270689 -1.211256 2.885367 0.807454 4.072799 -1.821633 -13.593261 1.272605 -91.882528 -1.595895 -3.919747 -1.614263 -16.363287 0.678197 3.179008 0.938751 2.776059 6.453708 16.760806 4.115919 36.303933 57.200371 -27.874596 178.428108 38.443627 -178.724984 0.000000 0.000000 -0.000000 0.496731 14.430023 -26.177901 -2.545027 -3.882781 15.784193 0.000000 0.000000 0.000000 7.650841 2.115394 -4.750992 3.067967 -7.888147 2.417080 
-2.815761 -0.061808 -3.296750 -6.338996 22.518038 -0.164459 0.000000 -0.000000 0.000000 0.552718 -1.502987 0.811957 3.536665 1.567290 2.950178 0.000000 0.000000 0.000000 3.734703 0.488929 3.613818 -3.485937 -3.281708 -1.197366 2.893196 0.783907 4.058771 -1.819093 -13.594748 1.269791 -91.910300 -1.617582 -3.928522 -1.617515 -16.367540 0.676755 3.189295 0.904871 2.776820 6.459505 16.776311 4.092554 36.397749 57.164668 -27.833387 178.428846 38.394414 -178.707166 0.000000 0.000000 -0.000000 0.465860 14.455221 -26.268051 -2.567998 -4.310881 15.888220 0.000000 0.000000 0.000000 7.680009 2.113771 -4.777694 3.114525 -7.899153 2.468122 
-2.997175 -0.069121 -3.378032 -6.268224 22.605979 -0.104343 0.000000 -0.000000 0.000000 0.588462 -1.533938 0.807441 3.556685 1.527319 2.951758 0.000000 0.000000 0.000000 3.754896 0.466331 3.604485 -3.469363 -3.297017 -1.181157 2.900782 0.759541 4.043810 -1.824807 -13.591092 1.267769 -91.923005 -1.649553 -3.934189 -1.620154 -16.363676 0.676377 3.197584 0.870976 2.779208 6.474229 16.786662 4.067249 36.492819 57.112603 -27.773976 178.431433 38.363983 -178.690588 0.000000 0.000000 -0.000000 0.451730 14.465210 -26.360561 -2.565830 -4.734436 15.980849 0.000000 0.000000 0.000000 7.712146 2.112207 -4.813595 3.154525 -7.906060 2.526236 
-3.175789 -0.077173 -3.459786 -6.194548 22.700319 -0.043883 0.000000 -0.000000 0.000000 0.619464 -1.564127 0.806668 3.578878 1.487286 2.955222 0.000000 0.000000 0.000000 3.774792 0.443859 3.597542 -3.450448 -3.311625 -1.163506 2.907449 0.737447 4.035012 -1.829148 -13.586232 1.264612 -91.938067 -1.681460 -3.943794 -1.622978 -16.350994 0.674235 3.206264 0.837707 2.783705 6.496189 16.792591 4.045183 36.565623 57.068902 -27.722173 178.434990 38.340454 -178.677389 0.000000 -0.000000 -0.000000 0.450440 14.463712 -26.435671 -2.546936 -5.145017 16.047303 0.000000 0.000000 0.000000 7.748299 2.110621 -4.854904 3.183561 -7.914322 2.582444 
-3.350298 -0.085774 -3.542235 -6.116171 22.807219 0.015087 0.000000 -0.000000 0.000000 0.654302 -1.593879 0.803980 3.600849 1.448101 2.959366 0.000000 0.000000 0.000000 3.794999 0.421668 3.591455 -3.428539 -3.328080 -1.145113 2.915289 0.715255 4.025942 -1.837252 -13.578850 1.262139 -91.941598 -1.718617 -3.954957 -1.626991 -16.327354 0.671856 3.215382 0.804301 2.790119 6.525331 16.796038 4.026718 36.605646 57.036929 -27.684793 178.438757 38.327585 -178.665378 0.000000 -0.000000 -0.000000 0.486470 14.427871 -26.519362 -2.518923 -5.480360 16.149499 0.000000 0.000000 0.000000 7.785815 2.106911 -4.903219 3.205565 -7.917479 2.644590 
-3.519049 -0.094530 -3.625361 -6.039336 22.912869 0.071495 0.000000 -0.000000 0.000000 0.689916 -1.621549 0.801833 3.621027 1.409741 2.966217 0.000000 0.000000 0.000000 3.810656 0.399773 3.587489 -3.404779 -3.342164 -1.126102 2.920784 0.693977 4.020533 -1.849687 -13.566849 1.259873 -91.952122 -1.768935 -3.973909 -1.629662 -16.276222 0.671581 3.223156 0.771533 2.798015 6.556730 16.793744 4.013961 36.655187 56.989499 -27.636084 178.444503 38.318799 -178.654385 0.000000 -0.000000 -0.000000 0.532456 14.361861 -26.603795 -2.481709 -5.749565 16.255020 0.000000 0.000000 0.000000 7.827058 2.104394 -4.942496 3.222863 -7.917922 2.684244 
-3.680364 -0.103353 -3.709396 -5.961542 23.024404 0.123658 0.000000 -0.000000 0.000000 0.720938 -1.650000 0.799130 3.641973 1.369823 2.972137 0.000000 0.000000 0.000000 3.817654 0.378522 3.585455 -3.381313 -3.357819 -1.104501 2.926330 0.671718 4.015235 -1.867306 -13.550715 1.258435 -91.947132 -1.827243 -3.984473 -1.633194 -16.195779 0.668249 3.229850 0.737910 2.803994 6.592173 16.788078 4.001319 36.693509 56.954654 -27.599809 178.450493 38.319353 -178.642072 0.000000 -0.000000 -0.000000 0.586859 14.308961 -26.672888 -2.451131 -5.976974 16.378901 0.000000 0.000000 0.000000 7.873163 2.103676 -4.979280 3.223649 -7.916349 2.722715 
-3.832615 -0.111970 -3.794263 -5.881999 23.146479 0.166401 0.000000 -0.000000 0.000000 0.749538 -1.679201 0.794244 3.663100 1.326909 2.978433 0.000000 0.000000 0.000000 3.825192 0.356586 3.583932 -3.354055 -3.372381 -1.081719 2.931634 0.649703 4.007681 -1.885634 -13.531334 1.255993 -91.930605 -1.900990 -4.011704 -1.637061 -16.088128 0.667232 3.237386 0.702082 2.809254 6.631768 16.772902 3.990961 36.723674 56.927967 -27.565743 178.460556 38.315810 -178.630233 0.000000 -0.000000 -0.000000 0.648003 14.276653 -26.773222 -2.424592 -6.095589 16.563046 0.000000 0.000000 0.000000 7.924802 2.101115 -5.017022 3.204225 -7.913464 2.763259 
-3.973996 -0.120158 -3.880046 -5.800445 23.275630 0.201878 0.000000 -0.000000 0.000000 0.776764 -1.709854 0.790027 3.684712 1.284842 2.982051 0.000000 0.000000 0.000000 3.833268 0.334646 3.581335 -3.324649 -3.388750 -1.061866 2.937050 0.628174 3.999135 -1.907713 -13.507767 1.254147 -91.925110 -1.982700 -4.045127 -1.641342 -15.959209 0.662189 3.246806 0.666906 2.812186 6.675127 16.750143 3.983019 36.733048 56.904747 -27.556448 178.469358 38.314901 -178.618838 0.000000 -0.000000 -0.000000 0.709826 14.256309 -26.882556 -2.413295 -6.136065 16.760765 0.000000 0.000000 0.000000 7.974409 2.092833 -5.056479 3.175638 -7.909143 2.806133 
-4.102584 -0.127654 -3.966779 -5.726028 23.409504 0.225221 0.000000 -0.000000 0.000000 0.801695 -1.739701 0.782384 3.709306 1.241514 2.986620 0.000000 0.000000 0.000000 3.843182 0.313892 3.580732 -3.293134 -3.401801 -1.049095 2.943962 0.608443 3.992951 -1.929416 -13.482748 1.254253 -91.924817 -2.068164 -4.090575 -1.645571 -15.774990 0.659122 3.259094 0.634127 2.815055 6.720725 16.709955 3.975300 36.765561 56.900195 -27.513941 178.481571 38.327214 -178.608539 0.000000 -0.000000 -0.000000 0.778983 14.231371 -27.000481 -2.374990 -6.049567 16.947099 0.000000 0.000000 0.000000 8.020217 2.088240 -5.091612 3.142194 -7.910987 2.844034 
-4.216393 -0.134322 -4.054363 -5.656665 23.550303 0.236023 0.000000 -0.000000 0.000000 0.823030 -1.771306 0.771786 3.731070 1.199090 2.990501 0.000000 0.000000 0.000000 3.852410 0.293388 3.580443 -3.262227 -3.415797 -1.040891 2.951312 0.589756 3.984172 -1.953824 -13.456012 1.254170 -91.935886 -2.165595 -4.164145 -1.649464 -15.554077 0.658173 3.272126 0.600210 2.815766 6.768513 16.658343 3.966662 36.780324 56.905414 -27.475302 178.495240 38.327625 -178.600046 0.000000 -0.000000 -0.000000 0.857765 14.221630 -27.118662 -2.310277 -5.871254 17.109872 0.000000 0.000000 0.000000 8.062024 2.086838 -5.128060 3.109041 -7.910723 2.896991 
